<svg width="46" height="56" viewBox="0 0 46 56" fill="none" xmlns="http://www.w3.org/2000/svg">
<path d="M38.3268 53.7532C35.3546 56.7084 32.1094 56.2418 28.9855 54.842C25.6797 53.411 22.6468 53.3488 19.159 54.842C14.7916 56.7706 12.4866 56.2107 9.87834 53.7532C-4.92214 38.1063 -2.73846 14.2782 14.0637 13.4072C18.1581 13.6249 21.009 15.7091 23.405 15.8958C26.9838 15.1492 30.411 13.0028 34.2324 13.2828C38.8121 13.6561 42.2696 15.5225 44.5442 18.8821C35.0816 24.6991 37.326 37.4842 46 41.0615C44.2713 45.7276 42.0269 50.3625 38.2965 53.7843L38.3268 53.7532ZM23.1017 13.2206C22.6468 6.28365 28.1363 0.559929 34.4447 0C35.3242 8.02565 27.3478 13.9982 23.1017 13.2206Z" fill="white"/>
</svg>
