<svg width="48" height="49" viewBox="0 0 48 49" fill="none" xmlns="http://www.w3.org/2000/svg">
<path d="M47.1798 25.2269C47.1798 23.2651 47.0207 21.8335 46.6761 20.3489H24.2744V29.2035H37.4237C37.1587 31.404 35.7271 34.7178 32.5458 36.9446L32.5012 37.2411L39.5842 42.7282L40.0749 42.7772C44.5817 38.6149 47.1798 32.4909 47.1798 25.2269Z" fill="white"/>
<path d="M24.2748 48.5566C30.7169 48.5566 36.125 46.4356 40.0753 42.7772L32.5461 36.9447C30.5314 38.3498 27.8272 39.3306 24.2748 39.3306C17.9652 39.3306 12.6101 35.1686 10.7011 29.4157L10.4213 29.4395L3.05628 35.1393L2.95996 35.4071C6.88354 43.2012 14.9429 48.5566 24.2748 48.5566Z" fill="white"/>
<path d="M10.7012 29.4156C10.1975 27.9311 9.90597 26.3403 9.90597 24.6967C9.90597 23.0529 10.1975 21.4623 10.6747 19.9777L10.6613 19.6615L3.20402 13.8701L2.96003 13.9862C1.34293 17.2205 0.415039 20.8526 0.415039 24.6967C0.415039 28.5408 1.34293 32.1726 2.96003 35.407L10.7012 29.4156Z" fill="white"/>
<path d="M24.2748 10.0627C28.7551 10.0627 31.7773 11.9979 33.5005 13.6152L40.2343 7.04047C36.0987 3.1964 30.7169 0.836914 24.2748 0.836914C14.9429 0.836914 6.88354 6.19208 2.95996 13.9862L10.6746 19.9778C12.6101 14.2249 17.9652 10.0627 24.2748 10.0627Z" fill="white"/>
</svg>
