<svg width="124" height="80" viewBox="0 0 124 80" fill="none" xmlns="http://www.w3.org/2000/svg">
<g filter="url(#filter0_d_28_447)">
<path d="M43.0905 26C40.2787 26 37.5821 27.1294 35.5939 29.1397L29.1052 35.7005C27.117 37.7108 26 40.4374 26 43.2804C26 49.2007 30.7466 54 36.6018 54C39.4136 54 42.1102 52.8706 44.0984 50.8603L48.5867 46.3221C48.5867 46.322 48.5868 46.3222 48.5867 46.3221L61.664 33.0995C62.6136 32.1394 63.9015 31.6 65.2444 31.6C67.4926 31.6 69.3987 33.0816 70.0595 35.1318L74.1867 30.9588C72.3039 27.9771 69.0025 26 65.2444 26C62.4326 26 59.736 27.1294 57.7478 29.1397L40.1822 46.9005C39.2326 47.8606 37.9447 48.4 36.6018 48.4C33.8054 48.4 31.5385 46.1079 31.5385 43.2804C31.5385 41.9226 32.0719 40.6204 33.0215 39.6603L39.5102 33.0995C40.4597 32.1394 41.7476 31.6 43.0905 31.6C45.3388 31.6 47.2448 33.0816 47.9056 35.1319L52.0329 30.9589C50.1501 27.9772 46.8487 26 43.0905 26Z" fill="white" fill-opacity="0.99"/>
<path d="M62.3358 46.9005C61.3862 47.8606 60.0983 48.4 58.7554 48.4C56.5074 48.4 54.6016 46.9188 53.9406 44.8689L49.8135 49.0419C51.6964 52.0231 54.9976 54 58.7554 54C61.5672 54 64.2638 52.8706 66.252 50.8603L83.8176 33.0995C84.7672 32.1394 86.0551 31.6 87.398 31.6C90.1944 31.6 92.4613 33.8921 92.4613 36.7196C92.4613 38.0774 91.9279 39.3796 90.9783 40.3397L84.4896 46.9005C83.54 47.8606 82.2522 48.4 80.9093 48.4C78.6611 48.4 76.7552 46.9185 76.0942 44.8685L71.9672 49.0415C73.85 52.023 77.1512 54 80.9093 54C83.7211 54 86.4176 52.8706 88.4059 50.8603L94.8945 44.2995C96.8828 42.2892 97.9998 39.5626 97.9998 36.7196C97.9998 30.7993 93.2532 26 87.398 26C84.5862 26 81.8896 27.1294 79.9014 29.1397L62.3358 46.9005Z" fill="white" fill-opacity="0.99"/>
</g>
<defs>
<filter id="filter0_d_28_447" x="0.604662" y="0.604662" width="122.791" height="78.7907" filterUnits="userSpaceOnUse" color-interpolation-filters="sRGB">
<feFlood flood-opacity="0" result="BackgroundImageFix"/>
<feColorMatrix in="SourceAlpha" type="matrix" values="0 0 0 0 0 0 0 0 0 0 0 0 0 0 0 0 0 0 127 0" result="hardAlpha"/>
<feOffset/>
<feGaussianBlur stdDeviation="12.6977"/>
<feComposite in2="hardAlpha" operator="out"/>
<feColorMatrix type="matrix" values="0 0 0 0 0 0 0 0 0 0 0 0 0 0 0 0 0 0 0.02 0"/>
<feBlend mode="normal" in2="BackgroundImageFix" result="effect1_dropShadow_28_447"/>
<feBlend mode="normal" in="SourceGraphic" in2="effect1_dropShadow_28_447" result="shape"/>
</filter>
</defs>
</svg>
