<svg width="145" height="88" viewBox="0 0 145 88" fill="none" xmlns="http://www.w3.org/2000/svg">
<g filter="url(#filter0_d_43_60)">
<path d="M48.0753 26C44.4434 26 40.9603 27.4588 38.3921 30.0554L30.0109 38.5298C27.4428 41.1265 26 44.6483 26 48.3205C26 55.9676 32.131 62.1667 39.694 62.1667C43.3259 62.1667 46.809 60.7079 49.3771 58.1112L55.1745 52.2494C55.1745 52.2493 55.1746 52.2496 55.1745 52.2494L72.0661 35.1702C73.2926 33.93 74.9561 33.2333 76.6907 33.2333C79.5947 33.2333 82.0567 35.1471 82.9102 37.7953L88.2412 32.4051C85.8092 28.5538 81.5449 26 76.6907 26C73.0588 26 69.5757 27.4588 67.0076 30.0554L44.3186 52.9965C43.0921 54.2367 41.4286 54.9334 39.694 54.9334C36.082 54.9334 33.1539 51.9728 33.1539 48.3205C33.1539 46.5667 33.8429 44.8847 35.0694 43.6445L43.4506 35.1702C44.6772 33.93 46.3407 33.2333 48.0753 33.2333C50.9794 33.2333 53.4412 35.1471 54.2948 37.7954L59.6259 32.4052C57.1939 28.5539 52.9296 26 48.0753 26Z" fill="#181818" fill-opacity="0.31"/>
<path d="M72.9324 52.9965C71.7059 54.2367 70.0424 54.9334 68.3078 54.9334C65.4042 54.9334 62.9424 53.0201 62.0886 50.3724L56.7578 55.7624C59.1899 59.6132 63.4539 62.1667 68.3078 62.1667C71.9397 62.1667 75.4228 60.7079 77.9909 58.1112L100.68 35.1702C101.906 33.93 103.57 33.2333 105.304 33.2333C108.917 33.2333 111.845 36.194 111.845 39.8462C111.845 41.6 111.156 43.282 109.929 44.5222L101.548 52.9965C100.321 54.2367 98.6578 54.9334 96.9233 54.9334C94.0194 54.9334 91.5575 53.0198 90.7038 50.3718L85.373 55.7619C87.805 59.6131 92.0691 62.1667 96.9233 62.1667C100.555 62.1667 104.038 60.7079 106.606 58.1112L114.988 49.6369C117.556 47.0402 118.999 43.5184 118.999 39.8462C118.999 32.1991 112.868 26 105.304 26C101.673 26 98.1895 27.4588 95.6214 30.0554L72.9324 52.9965Z" fill="#181818" fill-opacity="0.31"/>
</g>
<defs>
<filter id="filter0_d_43_60" x="0.604662" y="0.604662" width="143.789" height="86.9574" filterUnits="userSpaceOnUse" color-interpolation-filters="sRGB">
<feFlood flood-opacity="0" result="BackgroundImageFix"/>
<feColorMatrix in="SourceAlpha" type="matrix" values="0 0 0 0 0 0 0 0 0 0 0 0 0 0 0 0 0 0 127 0" result="hardAlpha"/>
<feOffset/>
<feGaussianBlur stdDeviation="12.6977"/>
<feComposite in2="hardAlpha" operator="out"/>
<feColorMatrix type="matrix" values="0 0 0 0 0 0 0 0 0 0 0 0 0 0 0 0 0 0 0.02 0"/>
<feBlend mode="normal" in2="BackgroundImageFix" result="effect1_dropShadow_43_60"/>
<feBlend mode="normal" in="SourceGraphic" in2="effect1_dropShadow_43_60" result="shape"/>
</filter>
</defs>
</svg>
