<svg width="160" height="23" viewBox="0 0 160 23" fill="none" xmlns="http://www.w3.org/2000/svg">
<path d="M10.2074 5.34375C10.1278 4.59943 9.79261 4.01989 9.2017 3.60511C8.61648 3.19034 7.85511 2.98295 6.91761 2.98295C6.25852 2.98295 5.69318 3.08239 5.22159 3.28125C4.75 3.48011 4.3892 3.75 4.1392 4.09091C3.8892 4.43182 3.76136 4.82102 3.75568 5.25852C3.75568 5.62216 3.83807 5.9375 4.00284 6.20455C4.1733 6.47159 4.40341 6.69886 4.69318 6.88636C4.98295 7.06818 5.30398 7.22159 5.65625 7.34659C6.00852 7.47159 6.36364 7.5767 6.72159 7.66193L8.35795 8.07102C9.01705 8.22443 9.65057 8.43182 10.2585 8.69318C10.8722 8.95455 11.4205 9.28409 11.9034 9.68182C12.392 10.0795 12.7784 10.5597 13.0625 11.1222C13.3466 11.6847 13.4886 12.3437 13.4886 13.0994C13.4886 14.1222 13.2273 15.0227 12.7045 15.8011C12.1818 16.5739 11.4261 17.179 10.4375 17.6165C9.45455 18.0483 8.2642 18.2642 6.86648 18.2642C5.50852 18.2642 4.32955 18.054 3.32955 17.6335C2.33523 17.2131 1.55682 16.5994 0.994318 15.7926C0.4375 14.9858 0.136364 14.0028 0.0909091 12.8438H3.2017C3.24716 13.4517 3.43466 13.9574 3.7642 14.3608C4.09375 14.7642 4.52273 15.0653 5.05114 15.2642C5.58523 15.4631 6.18182 15.5625 6.84091 15.5625C7.52841 15.5625 8.13068 15.4602 8.64773 15.2557C9.17045 15.0455 9.57955 14.7557 9.875 14.3864C10.1705 14.0114 10.321 13.5739 10.3267 13.0739C10.321 12.6193 10.1875 12.2443 9.92614 11.9489C9.66477 11.6477 9.2983 11.3977 8.8267 11.1989C8.3608 10.9943 7.81534 10.8125 7.19034 10.6534L5.20455 10.142C3.76705 9.77273 2.63068 9.21307 1.79545 8.46307C0.965909 7.70739 0.551136 6.70455 0.551136 5.45454C0.551136 4.42614 0.829546 3.52557 1.38636 2.75284C1.94886 1.98011 2.71307 1.38068 3.67898 0.954545C4.64489 0.522727 5.73864 0.306818 6.96023 0.306818C8.19886 0.306818 9.28409 0.522727 10.2159 0.954545C11.1534 1.38068 11.8892 1.97443 12.4233 2.73579C12.9574 3.49148 13.233 4.3608 13.25 5.34375H10.2074ZM18.0888 22.9091C17.6683 22.9091 17.2791 22.875 16.9212 22.8068C16.5689 22.7443 16.2876 22.6705 16.0774 22.5852L16.7933 20.1818C17.2422 20.3125 17.6428 20.375 17.995 20.3693C18.3473 20.3636 18.657 20.2528 18.924 20.0369C19.1967 19.8267 19.4268 19.4744 19.6143 18.9801L19.8786 18.2727L15.1314 4.90909H18.4041L21.4212 14.7955H21.5575L24.5831 4.90909H27.8643L22.6229 19.5852C22.3786 20.2784 22.0547 20.8722 21.6513 21.3665C21.2479 21.8665 20.7536 22.2472 20.1683 22.5085C19.5888 22.7756 18.8956 22.9091 18.0888 22.9091ZM29.9993 18V4.90909H32.9482V7.13352H33.1016C33.3743 6.38352 33.826 5.7983 34.4567 5.37784C35.0874 4.9517 35.8402 4.73864 36.7152 4.73864C37.6016 4.73864 38.3487 4.95455 38.9567 5.38636C39.5703 5.8125 40.0021 6.39489 40.2521 7.13352H40.3885C40.6783 6.40625 41.1669 5.8267 41.8544 5.39489C42.5476 4.95739 43.3686 4.73864 44.3175 4.73864C45.522 4.73864 46.505 5.11932 47.2663 5.88068C48.0277 6.64205 48.4084 7.75284 48.4084 9.21307V18H45.3146V9.69034C45.3146 8.87784 45.0987 8.28409 44.6669 7.90909C44.2351 7.52841 43.7067 7.33807 43.0817 7.33807C42.3374 7.33807 41.755 7.57102 41.3345 8.03693C40.9197 8.49716 40.7124 9.09659 40.7124 9.83523V18H37.6868V9.5625C37.6868 8.88636 37.4822 8.34659 37.0732 7.94318C36.6697 7.53977 36.1413 7.33807 35.4879 7.33807C35.0447 7.33807 34.6413 7.4517 34.2777 7.67898C33.9141 7.90057 33.6243 8.21591 33.4084 8.625C33.1925 9.02841 33.0845 9.5 33.0845 10.0398V18H29.9993ZM51.5384 22.9091V4.90909H54.5724V7.07386H54.7514C54.9105 6.75568 55.1349 6.41761 55.4247 6.05966C55.7145 5.69602 56.1065 5.38636 56.6009 5.13068C57.0952 4.86932 57.7259 4.73864 58.4929 4.73864C59.5043 4.73864 60.4162 4.99716 61.2287 5.5142C62.0469 6.02557 62.6946 6.78409 63.1719 7.78977C63.6548 8.78977 63.8963 10.017 63.8963 11.4716C63.8963 12.9091 63.6605 14.1307 63.1889 15.1364C62.7173 16.142 62.0753 16.9091 61.2628 17.4375C60.4503 17.9659 59.5298 18.2301 58.5014 18.2301C57.7514 18.2301 57.1293 18.1051 56.6349 17.8551C56.1406 17.6051 55.7429 17.304 55.4418 16.9517C55.1463 16.5937 54.9162 16.2557 54.7514 15.9375H54.6236V22.9091H51.5384ZM54.5639 11.4545C54.5639 12.3011 54.6832 13.0426 54.9219 13.679C55.1662 14.3153 55.5156 14.8125 55.9702 15.1705C56.4304 15.5227 56.9872 15.6989 57.6406 15.6989C58.3224 15.6989 58.8935 15.517 59.3537 15.1534C59.8139 14.7841 60.1605 14.2812 60.3935 13.6449C60.6321 13.0028 60.7514 12.2727 60.7514 11.4545C60.7514 10.642 60.6349 9.92045 60.402 9.28977C60.169 8.65909 59.8224 8.16477 59.3622 7.80682C58.902 7.44886 58.3281 7.26989 57.6406 7.26989C56.9815 7.26989 56.4219 7.44318 55.9616 7.78977C55.5014 8.13636 55.152 8.62216 54.9134 9.24716C54.6804 9.87216 54.5639 10.608 54.5639 11.4545ZM73.0753 4.90909V7.29545H65.5497V4.90909H73.0753ZM67.4077 1.77273H70.4929V14.0625C70.4929 14.4773 70.5554 14.7955 70.6804 15.017C70.8111 15.233 70.9815 15.3807 71.1918 15.4602C71.402 15.5398 71.6349 15.5795 71.8906 15.5795C72.0838 15.5795 72.2599 15.5653 72.419 15.5369C72.5838 15.5085 72.7088 15.483 72.794 15.4602L73.3139 17.8722C73.1491 17.929 72.9134 17.9915 72.6065 18.0597C72.3054 18.1278 71.9361 18.1676 71.4986 18.179C70.7259 18.2017 70.0298 18.0852 69.4105 17.8295C68.7912 17.5682 68.2997 17.1648 67.9361 16.6193C67.5781 16.0739 67.402 15.392 67.4077 14.5739V1.77273ZM81.2251 18.2557C79.9467 18.2557 78.8388 17.9744 77.9013 17.4119C76.9638 16.8494 76.2365 16.0625 75.7195 15.0511C75.2081 14.0398 74.9524 12.858 74.9524 11.5057C74.9524 10.1534 75.2081 8.96875 75.7195 7.9517C76.2365 6.93466 76.9638 6.14489 77.9013 5.58239C78.8388 5.01989 79.9467 4.73864 81.2251 4.73864C82.5036 4.73864 83.6115 5.01989 84.549 5.58239C85.4865 6.14489 86.2109 6.93466 86.7223 7.9517C87.2393 8.96875 87.4979 10.1534 87.4979 11.5057C87.4979 12.858 87.2393 14.0398 86.7223 15.0511C86.2109 16.0625 85.4865 16.8494 84.549 17.4119C83.6115 17.9744 82.5036 18.2557 81.2251 18.2557ZM81.2422 15.7841C81.9354 15.7841 82.5149 15.5937 82.9808 15.2131C83.4467 14.8267 83.7933 14.3097 84.0206 13.6619C84.2536 13.0142 84.37 12.2926 84.37 11.4972C84.37 10.696 84.2536 9.97159 84.0206 9.32386C83.7933 8.67045 83.4467 8.15057 82.9808 7.7642C82.5149 7.37784 81.9354 7.18466 81.2422 7.18466C80.532 7.18466 79.9411 7.37784 79.4695 7.7642C79.0036 8.15057 78.6541 8.67045 78.4212 9.32386C78.1939 9.97159 78.0803 10.696 78.0803 11.4972C78.0803 12.2926 78.1939 13.0142 78.4212 13.6619C78.6541 14.3097 79.0036 14.8267 79.4695 15.2131C79.9411 15.5937 80.532 15.7841 81.2422 15.7841ZM99.7386 5.34375C99.6591 4.59943 99.3239 4.01989 98.733 3.60511C98.1477 3.19034 97.3864 2.98295 96.4489 2.98295C95.7898 2.98295 95.2244 3.08239 94.7528 3.28125C94.2813 3.48011 93.9205 3.75 93.6705 4.09091C93.4205 4.43182 93.2926 4.82102 93.2869 5.25852C93.2869 5.62216 93.3693 5.9375 93.5341 6.20455C93.7045 6.47159 93.9347 6.69886 94.2244 6.88636C94.5142 7.06818 94.8352 7.22159 95.1875 7.34659C95.5398 7.47159 95.8949 7.5767 96.2528 7.66193L97.8892 8.07102C98.5483 8.22443 99.1818 8.43182 99.7898 8.69318C100.403 8.95455 100.952 9.28409 101.435 9.68182C101.923 10.0795 102.31 10.5597 102.594 11.1222C102.878 11.6847 103.02 12.3437 103.02 13.0994C103.02 14.1222 102.759 15.0227 102.236 15.8011C101.713 16.5739 100.957 17.179 99.9688 17.6165C98.9858 18.0483 97.7955 18.2642 96.3977 18.2642C95.0398 18.2642 93.8608 18.054 92.8608 17.6335C91.8665 17.2131 91.0881 16.5994 90.5256 15.7926C89.9688 14.9858 89.6676 14.0028 89.6222 12.8438H92.733C92.7784 13.4517 92.9659 13.9574 93.2955 14.3608C93.625 14.7642 94.054 15.0653 94.5824 15.2642C95.1165 15.4631 95.7131 15.5625 96.3722 15.5625C97.0597 15.5625 97.6619 15.4602 98.179 15.2557C98.7017 15.0455 99.1108 14.7557 99.4062 14.3864C99.7017 14.0114 99.8523 13.5739 99.858 13.0739C99.8523 12.6193 99.7188 12.2443 99.4574 11.9489C99.196 11.6477 98.8295 11.3977 98.358 11.1989C97.892 10.9943 97.3466 10.8125 96.7216 10.6534L94.7358 10.142C93.2983 9.77273 92.1619 9.21307 91.3267 8.46307C90.4972 7.70739 90.0824 6.70455 90.0824 5.45454C90.0824 4.42614 90.3608 3.52557 90.9176 2.75284C91.4801 1.98011 92.2443 1.38068 93.2102 0.954545C94.1761 0.522727 95.2699 0.306818 96.4915 0.306818C97.7301 0.306818 98.8153 0.522727 99.7472 0.954545C100.685 1.38068 101.42 1.97443 101.955 2.73579C102.489 3.49148 102.764 4.3608 102.781 5.34375H99.7386ZM111.498 18.2557C110.185 18.2557 109.052 17.983 108.097 17.4375C107.148 16.8864 106.418 16.108 105.907 15.1023C105.396 14.0909 105.14 12.9006 105.14 11.5312C105.14 10.1847 105.396 9.00284 105.907 7.9858C106.424 6.96307 107.146 6.16761 108.072 5.59943C108.998 5.02557 110.086 4.73864 111.336 4.73864C112.143 4.73864 112.904 4.86932 113.62 5.13068C114.342 5.38636 114.978 5.78409 115.529 6.32386C116.086 6.86364 116.523 7.55114 116.842 8.38636C117.16 9.21591 117.319 10.2045 117.319 11.3523V12.2983H106.589V10.2188H114.362C114.356 9.62784 114.228 9.10227 113.978 8.64205C113.728 8.17614 113.379 7.80966 112.93 7.54261C112.487 7.27557 111.969 7.14205 111.379 7.14205C110.748 7.14205 110.194 7.29545 109.717 7.60227C109.239 7.90341 108.867 8.30114 108.6 8.79545C108.339 9.28409 108.205 9.82102 108.2 10.4062V12.2216C108.2 12.983 108.339 13.6364 108.617 14.1818C108.896 14.7216 109.285 15.1364 109.785 15.4261C110.285 15.7102 110.87 15.8523 111.54 15.8523C111.989 15.8523 112.396 15.7898 112.759 15.6648C113.123 15.5341 113.438 15.3438 113.705 15.0938C113.972 14.8438 114.174 14.5341 114.31 14.1648L117.191 14.4886C117.009 15.25 116.663 15.9148 116.151 16.483C115.646 17.0455 114.998 17.483 114.208 17.7955C113.418 18.1023 112.515 18.2557 111.498 18.2557ZM123.014 10.3295V18H119.929V4.90909H122.878V7.13352H123.031C123.332 6.40057 123.813 5.81818 124.472 5.38636C125.136 4.95455 125.957 4.73864 126.935 4.73864C127.838 4.73864 128.625 4.93182 129.295 5.31818C129.972 5.70455 130.494 6.2642 130.864 6.99716C131.239 7.73011 131.423 8.61932 131.418 9.66477V18H128.332V10.142C128.332 9.26705 128.105 8.58239 127.651 8.08807C127.202 7.59375 126.58 7.34659 125.784 7.34659C125.244 7.34659 124.764 7.46591 124.344 7.70455C123.929 7.9375 123.602 8.27557 123.364 8.71875C123.131 9.16193 123.014 9.69886 123.014 10.3295ZM144.901 8.36932L142.088 8.67614C142.009 8.39205 141.869 8.125 141.67 7.875C141.477 7.625 141.216 7.4233 140.886 7.26989C140.557 7.11648 140.153 7.03977 139.676 7.03977C139.034 7.03977 138.494 7.17898 138.057 7.45739C137.625 7.7358 137.412 8.09659 137.418 8.53977C137.412 8.92045 137.551 9.23011 137.835 9.46875C138.125 9.70739 138.602 9.90341 139.267 10.0568L141.5 10.5341C142.739 10.8011 143.659 11.2244 144.261 11.804C144.869 12.3835 145.176 13.142 145.182 14.0795C145.176 14.9034 144.935 15.6307 144.457 16.2614C143.986 16.8864 143.33 17.375 142.489 17.7273C141.648 18.0795 140.682 18.2557 139.591 18.2557C137.989 18.2557 136.699 17.9205 135.722 17.25C134.744 16.5739 134.162 15.6335 133.974 14.429L136.983 14.1392C137.119 14.7301 137.409 15.1761 137.852 15.4773C138.295 15.7784 138.872 15.929 139.582 15.929C140.315 15.929 140.903 15.7784 141.347 15.4773C141.795 15.1761 142.02 14.804 142.02 14.3608C142.02 13.9858 141.875 13.6761 141.585 13.4318C141.301 13.1875 140.858 13 140.256 12.8693L138.023 12.4006C136.767 12.1392 135.838 11.6989 135.236 11.0795C134.634 10.4545 134.335 9.66477 134.341 8.71023C134.335 7.90341 134.554 7.20455 134.997 6.61364C135.446 6.01705 136.068 5.55682 136.864 5.23295C137.665 4.90341 138.588 4.73864 139.634 4.73864C141.168 4.73864 142.375 5.06534 143.256 5.71875C144.142 6.37216 144.69 7.25568 144.901 8.36932ZM153.521 18.2557C152.209 18.2557 151.075 17.983 150.121 17.4375C149.172 16.8864 148.442 16.108 147.93 15.1023C147.419 14.0909 147.163 12.9006 147.163 11.5312C147.163 10.1847 147.419 9.00284 147.93 7.9858C148.447 6.96307 149.169 6.16761 150.095 5.59943C151.021 5.02557 152.109 4.73864 153.359 4.73864C154.166 4.73864 154.928 4.86932 155.643 5.13068C156.365 5.38636 157.001 5.78409 157.553 6.32386C158.109 6.86364 158.547 7.55114 158.865 8.38636C159.183 9.21591 159.342 10.2045 159.342 11.3523V12.2983H148.612V10.2188H156.385C156.379 9.62784 156.251 9.10227 156.001 8.64205C155.751 8.17614 155.402 7.80966 154.953 7.54261C154.51 7.27557 153.993 7.14205 153.402 7.14205C152.771 7.14205 152.217 7.29545 151.74 7.60227C151.263 7.90341 150.891 8.30114 150.624 8.79545C150.362 9.28409 150.229 9.82102 150.223 10.4062V12.2216C150.223 12.983 150.362 13.6364 150.641 14.1818C150.919 14.7216 151.308 15.1364 151.808 15.4261C152.308 15.7102 152.893 15.8523 153.564 15.8523C154.013 15.8523 154.419 15.7898 154.783 15.6648C155.146 15.5341 155.462 15.3438 155.729 15.0938C155.996 14.8438 156.197 14.5341 156.334 14.1648L159.214 14.4886C159.033 15.25 158.686 15.9148 158.175 16.483C157.669 17.0455 157.021 17.483 156.232 17.7955C155.442 18.1023 154.538 18.2557 153.521 18.2557Z" fill="#01606C"/>
</svg>
